<svg xmlns="http://www.w3.org/2000/svg" viewBox="0 0 418.32 177.12" width="418" height="177" role="img" aria-label="wattry"><g transform="translate(12.00,130.08) scale(0.12000,-0.12000)"><path d="M110 0H319L383 411H401L465 0H674L744 496H619L575 85H557L493 496H291L227 85H209L165 496H40ZM1008 -14C1112 -14 1143 42 1152 67H1171V66C1171 26 1207 0 1256 0H1340V104H1300C1282 104 1272 114 1272 134V319C1272 443 1190 510 1060 510C931 510 866 445 842 370L958 331C967 376 995 408 1058 408C1122 408 1150 374 1150 328V300H1014C902 300 822 247 822 145C822 43 902 -14 1008 -14ZM1030 88C976 88 948 113 948 149C948 185 976 206 1023 206H1150V196C1150 130 1100 88 1030 88ZM1622 0H1762V104H1666C1648 104 1638 114 1638 134V392H1774V496H1638V650H1512V496H1388V392H1512V112C1512 44 1556 0 1622 0ZM2078 0H2218V104H2122C2104 104 2094 114 2094 134V392H2230V496H2094V650H1968V496H1844V392H1968V112C1968 44 2012 0 2078 0Z" fill="#12141C"/><path d="M2344 0H2470V282C2470 352 2516 386 2580 386H2642V498H2582C2536 498 2500 480 2486 440H2468V496H2344ZM2794 -200H3106C3172 -200 3216 -156 3216 -88V496H3090V244C3090 152 3045 98 2968 98C2900 98 2862 135 2862 210V496H2736V200C2736 77 2813 -8 2929 -8C3018 -8 3058 31 3074 65H3092V-60C3092 -80 3082 -90 3064 -90H2794Z" fill="#2E6BFF"/></g></svg>